<?xml version="1.0" standalone="no"?>
<!DOCTYPE svg PUBLIC "-//W3C//DTD SVG 20010904//EN"
 "http://www.w3.org/TR/2001/REC-SVG-20010904/DTD/svg10.dtd">
<svg version="1.0" xmlns="http://www.w3.org/2000/svg"
 width="1200.000000pt" height="630.000000pt" viewBox="0 0 1200.000000 630.000000"
 preserveAspectRatio="xMidYMid meet">

<g transform="translate(0.000000,630.000000) scale(0.100000,-0.100000)"
fill="#000000" stroke="none">
<path d="M5765 6215 c-11 -2 -74 -9 -140 -15 -370 -36 -751 -138 -1095 -293
-729 -328 -1323 -882 -1699 -1582 -471 -875 -557 -1901 -240 -2850 171 -512
452 -969 848 -1377 l95 -98 443 0 443 0 15 38 c22 52 69 97 127 122 l50 21
-63 38 c-35 20 -89 54 -119 74 l-54 37 -41 -41 c-22 -23 -53 -48 -68 -56 -38
-19 -113 -27 -181 -19 -66 9 -69 17 -31 92 28 56 80 96 144 114 l43 11 -43 37
c-24 20 -69 60 -100 89 -31 29 -59 53 -62 53 -3 0 -27 -14 -53 -31 -59 -41
-154 -51 -233 -24 -28 9 -53 21 -57 26 -10 16 44 96 79 118 19 11 57 26 85 34
l51 13 -47 55 c-26 30 -64 78 -86 106 l-38 50 -47 -26 c-68 -38 -156 -37 -237
4 -32 17 -60 38 -62 46 -5 27 44 75 100 99 40 17 63 21 100 17 26 -4 48 -4 48
-2 0 2 -44 80 -129 225 -10 17 -9 17 -71 -6 -81 -29 -181 -2 -265 71 l-40 35
37 34 c60 57 162 71 237 32 l29 -15 -49 122 c-27 67 -49 127 -49 132 0 7 -28
9 -73 7 -100 -5 -158 20 -233 100 l-55 60 34 24 c73 49 176 53 245 8 12 -8 22
-11 22 -7 0 7 -28 155 -45 239 -4 18 -14 22 -68 26 -34 3 -81 15 -103 26 -69
35 -176 165 -158 193 13 21 74 39 133 39 46 0 71 -6 116 -30 56 -30 57 -30 51
-8 -3 13 -6 65 -6 116 0 79 -2 93 -17 98 -87 26 -137 72 -164 146 -10 30 -10
58 0 150 7 62 20 128 28 145 21 45 84 100 133 114 59 18 64 49 16 97 -50 48
-68 86 -70 146 -1 62 45 207 81 255 31 40 114 81 164 81 54 0 60 34 17 95 -29
41 -33 54 -33 113 0 62 4 74 50 156 72 129 157 182 249 158 35 -9 41 -8 56 11
17 20 17 23 -1 57 -26 52 -33 105 -19 155 14 51 120 181 175 215 47 29 129 37
177 17 34 -14 37 -14 56 6 16 18 19 32 15 83 -9 110 19 154 156 248 61 43 80
50 129 54 55 3 99 -9 144 -40 13 -10 22 -9 43 2 22 12 26 19 21 42 -9 45 21
125 62 166 50 50 193 112 258 112 55 0 125 -30 153 -66 17 -21 22 -23 50 -13
25 9 31 16 31 40 0 59 51 130 115 161 39 20 167 48 214 48 51 0 134 -44 162
-85 33 -48 89 -44 103 7 7 29 58 83 99 106 25 13 57 17 153 17 117 0 122 -1
170 -30 37 -23 55 -44 74 -83 22 -45 29 -52 55 -52 22 0 35 8 49 29 25 37 90
79 135 87 44 9 201 -20 250 -46 60 -30 111 -101 111 -154 0 -18 8 -27 31 -35
28 -10 35 -8 63 16 79 66 152 70 280 13 49 -22 100 -50 114 -62 37 -35 64 -97
65 -148 1 -40 5 -49 29 -63 26 -15 30 -15 70 8 53 31 128 33 180 6 20 -10 68
-42 107 -70 94 -70 116 -114 108 -216 -4 -62 -3 -76 12 -89 16 -15 21 -15 54
-1 49 20 113 19 162 -4 51 -23 160 -141 187 -201 23 -52 21 -115 -6 -172 -16
-34 -16 -38 -1 -62 14 -22 20 -24 43 -15 57 22 162 -16 205 -73 14 -18 43 -67
66 -109 31 -58 41 -87 41 -123 0 -53 -21 -110 -52 -143 -18 -19 -19 -27 -11
-46 9 -19 21 -25 61 -30 55 -6 118 -41 150 -81 20 -27 66 -153 77 -217 11 -59
-12 -118 -64 -170 -60 -60 -59 -90 2 -106 62 -17 108 -52 135 -104 19 -38 25
-67 29 -161 6 -126 -2 -169 -44 -219 -26 -31 -91 -69 -118 -69 -12 0 -15 -16
-15 -95 l0 -95 40 -37 c28 -24 45 -50 53 -80 6 -23 16 -43 23 -43 21 0 73 -69
80 -106 21 -111 -70 -186 -200 -166 l-56 9 -9 -36 c-35 -132 -35 -130 -13
-154 25 -27 42 -69 42 -106 0 -17 10 -37 26 -52 30 -27 54 -77 54 -111 0 -36
-38 -102 -69 -121 -36 -21 -102 -22 -167 -2 -27 8 -50 15 -51 15 -2 0 -16 -26
-32 -59 -30 -58 -30 -59 -11 -76 28 -26 43 -81 36 -133 -5 -35 -2 -50 11 -65
13 -14 18 -36 18 -81 0 -70 -19 -105 -72 -131 -50 -24 -89 -18 -167 25 l-72
39 -50 -66 -51 -66 15 -39 c13 -32 13 -48 4 -88 -9 -40 -9 -55 4 -87 47 -111
-53 -228 -165 -195 -21 7 -65 32 -96 57 -64 50 -52 51 -134 -18 -28 -23 -32
-31 -26 -57 7 -30 -9 -94 -29 -119 -6 -8 -9 -39 -8 -73 5 -82 -35 -140 -106
-154 -59 -11 -105 10 -162 76 l-52 60 -48 -25 c-47 -24 -48 -25 -52 -77 -2
-29 -8 -61 -12 -70 -8 -17 23 -18 572 -18 l580 0 32 27 c49 41 228 239 325
360 358 447 621 1019 718 1568 33 188 37 213 46 325 33 396 16 718 -58 1080
-157 762 -578 1477 -1171 1986 -551 473 -1196 758 -1922 850 -111 14 -609 28
-663 19z"/>
<path d="M5690 5317 c0 -29 -45 -97 -82 -126 -35 -28 -167 -62 -239 -62 -63
-1 -107 17 -155 63 -44 41 -71 32 -80 -27 -3 -25 -19 -65 -35 -89 -24 -38 -42
-52 -123 -90 -52 -25 -106 -48 -120 -52 -41 -10 -111 5 -152 32 -31 21 -41 24
-61 15 -20 -9 -23 -18 -23 -66 0 -59 -16 -107 -46 -141 -25 -27 -152 -117
-187 -132 -41 -17 -106 -14 -154 7 -40 19 -42 19 -57 2 -13 -14 -14 -24 -6
-45 14 -38 13 -121 -3 -159 -8 -18 -46 -67 -86 -109 -85 -91 -132 -114 -214
-105 -46 4 -55 2 -66 -15 -10 -16 -9 -26 5 -56 10 -21 19 -60 22 -87 4 -45 -1
-61 -42 -140 -67 -130 -135 -185 -229 -185 -20 0 -31 -7 -39 -25 -10 -21 -8
-29 10 -48 29 -31 52 -89 52 -134 0 -21 -12 -78 -27 -126 -34 -113 -78 -166
-157 -191 -69 -22 -80 -49 -35 -85 38 -30 74 -86 82 -130 7 -36 -7 -193 -24
-253 -9 -37 -63 -100 -104 -125 -16 -9 114 -12 594 -12 l614 -1 -46 31 c-90
59 -175 174 -237 320 -43 100 -83 255 -72 275 18 32 200 157 297 204 123 59
185 75 295 74 148 -2 278 -60 415 -187 80 -73 189 -203 200 -237 12 -36 -17
-65 -86 -85 -35 -10 -67 -21 -72 -25 -4 -3 73 -29 170 -57 98 -29 179 -50 181
-49 2 2 -55 122 -125 267 -71 145 -146 301 -168 345 l-39 82 -47 4 c-125 12
-205 148 -151 255 65 126 217 148 306 43 38 -46 51 -104 36 -164 l-12 -48 288
-289 289 -289 8 127 c4 71 6 168 5 216 l-3 89 -43 -61 c-44 -63 -75 -81 -110
-62 -28 15 -135 198 -172 291 -43 112 -53 163 -53 270 1 161 58 286 193 420
81 80 265 210 297 210 31 -1 198 -128 281 -214 134 -140 187 -258 187 -421 0
-116 -23 -201 -87 -329 -50 -100 -132 -222 -157 -236 -32 -17 -63 3 -109 69
-24 34 -44 61 -45 61 -5 0 8 -389 13 -393 6 -7 57 40 336 310 l221 214 -5 68
c-5 78 7 111 63 159 43 38 70 46 136 40 140 -14 209 -189 116 -295 -37 -42
-81 -63 -135 -63 l-39 0 -53 -102 c-29 -57 -76 -148 -105 -203 -144 -275 -196
-377 -193 -379 2 -2 88 25 191 59 l188 62 -76 22 c-122 37 -132 63 -58 162
119 162 258 276 408 335 70 27 266 27 345 0 123 -42 275 -129 370 -214 l45
-39 -22 -89 c-60 -244 -161 -415 -300 -507 l-64 -42 301 -3 c542 -4 898 1 870
15 -34 16 -77 57 -95 92 -8 16 -19 80 -25 141 -13 137 0 190 61 251 54 54 53
84 -3 100 -52 13 -103 50 -129 93 -27 44 -69 182 -69 228 0 45 22 104 52 135
14 15 19 29 14 46 -5 21 -13 25 -60 30 -95 10 -150 60 -227 207 -31 61 -32
149 -2 207 21 39 21 42 4 57 -13 12 -29 14 -69 9 -81 -9 -129 14 -211 104 -39
42 -77 90 -85 108 -18 37 -21 120 -7 158 8 20 6 29 -9 42 -18 16 -22 16 -60 1
-48 -19 -108 -21 -147 -4 -42 18 -144 92 -179 130 -42 45 -57 87 -52 152 3 49
0 56 -19 65 -17 8 -27 6 -47 -10 -39 -31 -106 -51 -151 -45 -23 3 -79 23 -125
44 -120 55 -161 101 -175 194 -10 64 -31 68 -89 13 -57 -56 -108 -68 -209 -50
-157 27 -219 67 -249 156 -12 36 -20 45 -41 47 -19 2 -27 -1 -27 -13 0 -25
-85 -103 -127 -115 -23 -7 -84 -10 -150 -8 -105 3 -114 5 -155 33 -24 17 -52
47 -63 68 -16 29 -26 37 -47 37 -23 0 -28 -5 -28 -23z"/>
<path d="M5165 2794 c16 -22 39 -53 52 -70 25 -34 28 -55 13 -85 -10 -18 -6
-19 95 -19 98 0 110 2 167 31 l62 31 -185 68 c-101 37 -195 71 -209 75 l-24 8
29 -39z"/>
<path d="M6703 2752 c-106 -42 -193 -80 -193 -83 0 -3 17 -15 39 -27 35 -20
53 -22 186 -22 l148 0 -27 21 c-31 24 -33 57 -8 90 66 86 74 99 61 98 -8 0
-101 -35 -206 -77z"/>
<path d="M4723 49 l-31 -49 146 1 c117 0 142 3 122 12 -106 47 -198 87 -201
86 -2 0 -18 -22 -36 -50z"/>
</g>
</svg>
